<svg width="24" height="22" viewBox="0 0 24 22" fill="none" xmlns="http://www.w3.org/2000/svg">
<path d="M0 22L12 0L24 22H0ZM12 18.5263C12.3091 18.5263 12.5684 18.4152 12.7778 18.1928C12.9873 17.9705 13.0916 17.6957 13.0909 17.3684C13.0902 17.0411 12.9855 16.7663 12.7767 16.544C12.568 16.3217 12.3091 16.2105 12 16.2105C11.6909 16.2105 11.432 16.3217 11.2233 16.544C11.0145 16.7663 10.9098 17.0411 10.9091 17.3684C10.9084 17.6957 11.0131 17.9709 11.2233 18.194C11.4335 18.4171 11.6924 18.5279 12 18.5263ZM10.9091 15.0526H13.0909V9.26316H10.9091V15.0526Z" fill="#FBC712"/>
</svg>
